<mxfile host="app.diagrams.net" agent="Mozilla/5.0 (Windows NT 10.0; Win64; x64) AppleWebKit/537.36 (KHTML, like Gecko) Chrome/139.0.0.0 Safari/537.36" version="28.2.0">
  <diagram name="Page-1" id="LlVEbUg-5_DGHzq2SJnI">
    <mxGraphModel dx="902" dy="537" grid="1" gridSize="10" guides="1" tooltips="1" connect="1" arrows="1" fold="1" page="1" pageScale="1" pageWidth="850" pageHeight="1100" math="0" shadow="0">
      <root>
        <mxCell id="0" />
        <mxCell id="1" parent="0" />
        <mxCell id="BarqFfCigDSDMhDIm0-V-1" style="edgeStyle=orthogonalEdgeStyle;rounded=0;orthogonalLoop=1;jettySize=auto;html=1;exitX=0.25;exitY=1;exitDx=0;exitDy=0;entryX=0.5;entryY=0;entryDx=0;entryDy=0;" parent="1" source="BarqFfCigDSDMhDIm0-V-2" target="BarqFfCigDSDMhDIm0-V-9" edge="1">
          <mxGeometry relative="1" as="geometry" />
        </mxCell>
        <mxCell id="BarqFfCigDSDMhDIm0-V-2" value="" style="rounded=1;whiteSpace=wrap;html=1;fillColor=#f8cecc;strokeColor=#b85450;" parent="1" vertex="1">
          <mxGeometry x="160" y="80" width="220" height="430" as="geometry" />
        </mxCell>
        <mxCell id="BarqFfCigDSDMhDIm0-V-3" value="&lt;b&gt;Musical Instrument&lt;/b&gt;" style="text;html=1;align=center;verticalAlign=middle;whiteSpace=wrap;rounded=0;" parent="1" vertex="1">
          <mxGeometry x="210" y="80" width="120" height="30" as="geometry" />
        </mxCell>
        <mxCell id="BarqFfCigDSDMhDIm0-V-4" value="" style="rounded=1;whiteSpace=wrap;html=1;fillColor=#fff2cc;strokeColor=#d6b656;" parent="1" vertex="1">
          <mxGeometry x="170" y="110" width="200" height="350" as="geometry" />
        </mxCell>
        <mxCell id="BarqFfCigDSDMhDIm0-V-5" value="&lt;b&gt;Raspberry Pi&lt;/b&gt;" style="text;html=1;align=center;verticalAlign=middle;whiteSpace=wrap;rounded=0;" parent="1" vertex="1">
          <mxGeometry x="225" y="120" width="90" height="20" as="geometry" />
        </mxCell>
        <mxCell id="BarqFfCigDSDMhDIm0-V-24" value="" style="rounded=1;whiteSpace=wrap;html=1;fillColor=#e1d5e7;strokeColor=#9673a6;" parent="1" vertex="1">
          <mxGeometry x="180" y="200" width="180" height="240" as="geometry" />
        </mxCell>
        <mxCell id="BarqFfCigDSDMhDIm0-V-6" style="edgeStyle=orthogonalEdgeStyle;rounded=0;orthogonalLoop=1;jettySize=auto;html=1;entryX=1;entryY=0.5;entryDx=0;entryDy=0;exitX=1;exitY=0.5;exitDx=0;exitDy=0;" parent="1" source="BarqFfCigDSDMhDIm0-V-8" target="BarqFfCigDSDMhDIm0-V-12" edge="1">
          <mxGeometry relative="1" as="geometry">
            <Array as="points">
              <mxPoint x="390" y="165" />
              <mxPoint x="390" y="260" />
            </Array>
          </mxGeometry>
        </mxCell>
        <mxCell id="BarqFfCigDSDMhDIm0-V-7" value="" style="rounded=1;whiteSpace=wrap;html=1;fillColor=#dae8fc;strokeColor=#6c8ebf;" parent="1" vertex="1">
          <mxGeometry x="170" y="142.5" width="200" height="45" as="geometry" />
        </mxCell>
        <mxCell id="BarqFfCigDSDMhDIm0-V-8" value="&lt;b&gt;HiFiberry audio interface&lt;/b&gt;" style="text;html=1;align=center;verticalAlign=middle;whiteSpace=wrap;rounded=0;" parent="1" vertex="1">
          <mxGeometry x="170" y="150" width="200" height="30" as="geometry" />
        </mxCell>
        <mxCell id="BarqFfCigDSDMhDIm0-V-9" value="PA System" style="rounded=1;whiteSpace=wrap;html=1;fillColor=#e1d5e7;strokeColor=#9673a6;" parent="1" vertex="1">
          <mxGeometry x="170" y="560" width="90" height="80" as="geometry" />
        </mxCell>
        <mxCell id="BarqFfCigDSDMhDIm0-V-10" style="edgeStyle=orthogonalEdgeStyle;rounded=0;orthogonalLoop=1;jettySize=auto;html=1;entryX=0.5;entryY=0;entryDx=0;entryDy=0;" parent="1" source="BarqFfCigDSDMhDIm0-V-11" target="BarqFfCigDSDMhDIm0-V-18" edge="1">
          <mxGeometry relative="1" as="geometry" />
        </mxCell>
        <mxCell id="BarqFfCigDSDMhDIm0-V-11" value="" style="rounded=0;whiteSpace=wrap;html=1;fillColor=#f8cecc;strokeColor=#b85450;opacity=50;" parent="1" vertex="1">
          <mxGeometry x="190" y="250" width="160" height="20" as="geometry" />
        </mxCell>
        <mxCell id="BarqFfCigDSDMhDIm0-V-12" value="Audio Segment" style="text;html=1;align=center;verticalAlign=middle;whiteSpace=wrap;rounded=0;" parent="1" vertex="1">
          <mxGeometry x="190" y="250" width="160" height="20" as="geometry" />
        </mxCell>
        <mxCell id="BarqFfCigDSDMhDIm0-V-13" value="" style="rounded=0;whiteSpace=wrap;html=1;" parent="1" vertex="1">
          <mxGeometry x="190" y="390" width="160" height="20" as="geometry" />
        </mxCell>
        <mxCell id="BarqFfCigDSDMhDIm0-V-14" style="edgeStyle=orthogonalEdgeStyle;rounded=0;orthogonalLoop=1;jettySize=auto;html=1;" parent="1" source="BarqFfCigDSDMhDIm0-V-15" target="BarqFfCigDSDMhDIm0-V-21" edge="1">
          <mxGeometry relative="1" as="geometry" />
        </mxCell>
        <mxCell id="BarqFfCigDSDMhDIm0-V-15" value="OSC messages" style="text;html=1;align=center;verticalAlign=middle;whiteSpace=wrap;rounded=0;fillColor=#f8cecc;strokeColor=none;opacity=50;" parent="1" vertex="1">
          <mxGeometry x="190" y="390" width="160" height="20" as="geometry" />
        </mxCell>
        <mxCell id="BarqFfCigDSDMhDIm0-V-16" value="" style="rounded=0;whiteSpace=wrap;html=1;fillColor=#f8cecc;strokeColor=#b85450;opacity=50;" parent="1" vertex="1">
          <mxGeometry x="190" y="290" width="160" height="20" as="geometry" />
        </mxCell>
        <mxCell id="BarqFfCigDSDMhDIm0-V-17" style="edgeStyle=orthogonalEdgeStyle;rounded=0;orthogonalLoop=1;jettySize=auto;html=1;" parent="1" source="BarqFfCigDSDMhDIm0-V-18" target="BarqFfCigDSDMhDIm0-V-20" edge="1">
          <mxGeometry relative="1" as="geometry" />
        </mxCell>
        <mxCell id="BarqFfCigDSDMhDIm0-V-18" value="MFCC" style="text;html=1;align=center;verticalAlign=middle;whiteSpace=wrap;rounded=0;" parent="1" vertex="1">
          <mxGeometry x="190" y="290" width="160" height="20" as="geometry" />
        </mxCell>
        <mxCell id="BarqFfCigDSDMhDIm0-V-19" style="edgeStyle=orthogonalEdgeStyle;rounded=0;orthogonalLoop=1;jettySize=auto;html=1;entryX=0.5;entryY=0;entryDx=0;entryDy=0;" parent="1" source="BarqFfCigDSDMhDIm0-V-20" target="BarqFfCigDSDMhDIm0-V-15" edge="1">
          <mxGeometry relative="1" as="geometry">
            <Array as="points">
              <mxPoint x="270" y="380" />
              <mxPoint x="270" y="380" />
            </Array>
          </mxGeometry>
        </mxCell>
        <mxCell id="BarqFfCigDSDMhDIm0-V-20" value="Pattern Detection Algorithm" style="rounded=1;whiteSpace=wrap;html=1;fillColor=#d5e8d4;strokeColor=#82b366;" parent="1" vertex="1">
          <mxGeometry x="190" y="330" width="160" height="40" as="geometry" />
        </mxCell>
        <mxCell id="BarqFfCigDSDMhDIm0-V-21" value="Peripheral Devices" style="rounded=1;whiteSpace=wrap;html=1;fillColor=#e1d5e7;strokeColor=#9673a6;" parent="1" vertex="1">
          <mxGeometry x="280" y="560" width="90" height="80" as="geometry" />
        </mxCell>
        <mxCell id="BarqFfCigDSDMhDIm0-V-22" value="" style="endArrow=classic;html=1;rounded=0;entryX=0;entryY=0.5;entryDx=0;entryDy=0;exitX=0.25;exitY=1;exitDx=0;exitDy=0;" parent="1" source="BarqFfCigDSDMhDIm0-V-2" target="BarqFfCigDSDMhDIm0-V-8" edge="1">
          <mxGeometry width="50" height="50" relative="1" as="geometry">
            <mxPoint x="80" y="510" as="sourcePoint" />
            <mxPoint x="120" y="220" as="targetPoint" />
            <Array as="points">
              <mxPoint x="215" y="540" />
              <mxPoint x="140" y="540" />
              <mxPoint x="140" y="165" />
            </Array>
          </mxGeometry>
        </mxCell>
        <mxCell id="BarqFfCigDSDMhDIm0-V-23" value="Audio" style="text;html=1;align=center;verticalAlign=middle;whiteSpace=wrap;rounded=0;" parent="1" vertex="1">
          <mxGeometry x="165" y="510" width="60" height="30" as="geometry" />
        </mxCell>
        <mxCell id="BarqFfCigDSDMhDIm0-V-25" value="&lt;b&gt;VST Plugin&lt;/b&gt;" style="text;html=1;align=center;verticalAlign=middle;whiteSpace=wrap;rounded=0;" parent="1" vertex="1">
          <mxGeometry x="225" y="210" width="90" height="20" as="geometry" />
        </mxCell>
      </root>
    </mxGraphModel>
  </diagram>
</mxfile>
